<svg width="192" height="192" viewBox="0 0 192 192" fill="none" xmlns="http://www.w3.org/2000/svg">
  <rect width="192" height="192" rx="20" fill="#3b82f6"/>
  <rect x="16" y="16" width="160" height="160" rx="12" fill="white"/>
  
  <!-- Dashboard Grid Icon -->
  <rect x="32" y="32" width="48" height="48" rx="4" fill="#3b82f6"/>
  <rect x="96" y="32" width="48" height="48" rx="4" fill="#3b82f6"/>
  <rect x="32" y="96" width="48" height="48" rx="4" fill="#3b82f6"/>
  <rect x="96" y="96" width="48" height="48" rx="4" fill="#3b82f6"/>
  
  <!-- Admin Symbol -->
  <circle cx="56" cy="48" r="8" fill="white"/>
  <rect x="48" y="60" width="16" height="12" rx="2" fill="white"/>
  
  <!-- Calendar Symbol -->
  <rect x="104" y="40" width="32" height="24" rx="2" fill="white"/>
  <line x1="108" y1="44" x2="136" y2="44" stroke="#3b82f6" stroke-width="2"/>
  <line x1="108" y1="48" x2="132" y2="48" stroke="#3b82f6" stroke-width="1"/>
  <line x1="108" y1="52" x2="128" y2="52" stroke="#3b82f6" stroke-width="1"/>
  
  <!-- File Symbol -->
  <rect x="40" y="104" width="24" height="32" rx="2" fill="white"/>
  <polygon points="56,104 64,104 64,112 56,112" fill="#3b82f6"/>
  <line x1="44" y1="120" x2="60" y2="120" stroke="#3b82f6" stroke-width="1"/>
  <line x1="44" y1="124" x2="56" y2="124" stroke="#3b82f6" stroke-width="1"/>
  
  <!-- Chart Symbol -->
  <rect x="104" y="104" width="32" height="32" rx="2" fill="white"/>
  <rect x="108" y="124" width="4" height="8" fill="#3b82f6"/>
  <rect x="116" y="120" width="4" height="12" fill="#3b82f6"/>
  <rect x="124" y="116" width="4" height="16" fill="#3b82f6"/>
</svg>